<mxfile host="app.diagrams.net" modified="2023-02-22T08:30:14.726Z" agent="5.0 (Windows NT 10.0; Win64; x64) AppleWebKit/537.36 (KHTML, like Gecko) Chrome/110.0.0.0 Safari/537.36" etag="dU-DAcG0umn1e5i0t916" version="20.8.22" type="github">
  <diagram name="Page-1" id="e56a1550-8fbb-45ad-956c-1786394a9013">
    <mxGraphModel dx="2534" dy="764" grid="1" gridSize="10" guides="1" tooltips="1" connect="1" arrows="1" fold="1" page="1" pageScale="1" pageWidth="1100" pageHeight="850" background="none" math="0" shadow="0">
      <root>
        <mxCell id="0" />
        <mxCell id="1" parent="0" />
        <mxCell id="o5k_G5LygYLpbHygVO8U-1" value="Actor" style="rounded=1;arcSize=10;whiteSpace=wrap;html=1;align=center;" vertex="1" parent="1">
          <mxGeometry x="320" y="60" width="100" height="40" as="geometry" />
        </mxCell>
        <mxCell id="o5k_G5LygYLpbHygVO8U-2" value="speciality" style="ellipse;whiteSpace=wrap;html=1;align=center;" vertex="1" parent="1">
          <mxGeometry x="130" y="140" width="100" height="40" as="geometry" />
        </mxCell>
        <mxCell id="o5k_G5LygYLpbHygVO8U-3" value="Favorite Movie" style="ellipse;whiteSpace=wrap;html=1;align=center;" vertex="1" parent="1">
          <mxGeometry x="260" y="140" width="100" height="40" as="geometry" />
        </mxCell>
        <mxCell id="o5k_G5LygYLpbHygVO8U-5" value="" style="endArrow=none;html=1;rounded=0;entryX=0;entryY=1;entryDx=0;entryDy=0;exitX=0.5;exitY=0;exitDx=0;exitDy=0;" edge="1" parent="1" source="o5k_G5LygYLpbHygVO8U-2" target="o5k_G5LygYLpbHygVO8U-1">
          <mxGeometry relative="1" as="geometry">
            <mxPoint x="170" y="110" as="sourcePoint" />
            <mxPoint x="330" y="110" as="targetPoint" />
            <Array as="points" />
          </mxGeometry>
        </mxCell>
        <mxCell id="o5k_G5LygYLpbHygVO8U-6" value="" style="endArrow=none;html=1;rounded=0;exitX=1;exitY=0;exitDx=0;exitDy=0;entryX=0.25;entryY=1;entryDx=0;entryDy=0;" edge="1" parent="1" source="o5k_G5LygYLpbHygVO8U-3" target="o5k_G5LygYLpbHygVO8U-1">
          <mxGeometry relative="1" as="geometry">
            <mxPoint x="350" y="230" as="sourcePoint" />
            <mxPoint x="510" y="230" as="targetPoint" />
          </mxGeometry>
        </mxCell>
        <mxCell id="o5k_G5LygYLpbHygVO8U-7" value="" style="endArrow=none;html=1;rounded=0;exitX=1;exitY=0.5;exitDx=0;exitDy=0;startArrow=none;" edge="1" parent="1" source="o5k_G5LygYLpbHygVO8U-4">
          <mxGeometry relative="1" as="geometry">
            <mxPoint x="380" y="160" as="sourcePoint" />
            <mxPoint x="530" y="80" as="targetPoint" />
            <Array as="points">
              <mxPoint x="530" y="80" />
            </Array>
          </mxGeometry>
        </mxCell>
        <mxCell id="o5k_G5LygYLpbHygVO8U-9" value="First Name" style="ellipse;whiteSpace=wrap;html=1;align=center;" vertex="1" parent="1">
          <mxGeometry x="410" y="140" width="100" height="40" as="geometry" />
        </mxCell>
        <mxCell id="o5k_G5LygYLpbHygVO8U-10" value="Last Name" style="ellipse;whiteSpace=wrap;html=1;align=center;" vertex="1" parent="1">
          <mxGeometry x="510" y="140" width="100" height="40" as="geometry" />
        </mxCell>
        <mxCell id="o5k_G5LygYLpbHygVO8U-11" value="" style="endArrow=none;html=1;rounded=0;exitX=1;exitY=1;exitDx=0;exitDy=0;" edge="1" parent="1" source="o5k_G5LygYLpbHygVO8U-1" target="o5k_G5LygYLpbHygVO8U-9">
          <mxGeometry relative="1" as="geometry">
            <mxPoint x="350" y="230" as="sourcePoint" />
            <mxPoint x="510" y="230" as="targetPoint" />
          </mxGeometry>
        </mxCell>
        <mxCell id="o5k_G5LygYLpbHygVO8U-12" value="" style="endArrow=none;html=1;rounded=0;entryX=0.5;entryY=0;entryDx=0;entryDy=0;exitX=1;exitY=0.5;exitDx=0;exitDy=0;" edge="1" parent="1" source="o5k_G5LygYLpbHygVO8U-1" target="o5k_G5LygYLpbHygVO8U-10">
          <mxGeometry relative="1" as="geometry">
            <mxPoint x="350" y="230" as="sourcePoint" />
            <mxPoint x="510" y="230" as="targetPoint" />
          </mxGeometry>
        </mxCell>
        <mxCell id="o5k_G5LygYLpbHygVO8U-15" value="" style="endArrow=none;html=1;rounded=0;entryX=0;entryY=0.5;entryDx=0;entryDy=0;" edge="1" parent="1" source="o5k_G5LygYLpbHygVO8U-121" target="o5k_G5LygYLpbHygVO8U-1">
          <mxGeometry relative="1" as="geometry">
            <mxPoint x="270" y="80" as="sourcePoint" />
            <mxPoint x="740" y="350" as="targetPoint" />
          </mxGeometry>
        </mxCell>
        <mxCell id="o5k_G5LygYLpbHygVO8U-29" value="Director" style="rounded=1;arcSize=10;whiteSpace=wrap;html=1;align=center;" vertex="1" parent="1">
          <mxGeometry x="1120" y="290" width="100" height="40" as="geometry" />
        </mxCell>
        <mxCell id="o5k_G5LygYLpbHygVO8U-30" value="speciality" style="ellipse;whiteSpace=wrap;html=1;align=center;" vertex="1" parent="1">
          <mxGeometry x="900" y="370" width="100" height="40" as="geometry" />
        </mxCell>
        <mxCell id="o5k_G5LygYLpbHygVO8U-31" value="Favorite Movie" style="ellipse;whiteSpace=wrap;html=1;align=center;" vertex="1" parent="1">
          <mxGeometry x="1030" y="370" width="100" height="40" as="geometry" />
        </mxCell>
        <mxCell id="o5k_G5LygYLpbHygVO8U-32" value="ID" style="ellipse;whiteSpace=wrap;html=1;align=center;fontStyle=4;" vertex="1" parent="1">
          <mxGeometry x="1290" y="290" width="100" height="40" as="geometry" />
        </mxCell>
        <mxCell id="o5k_G5LygYLpbHygVO8U-33" value="" style="endArrow=none;html=1;rounded=0;entryX=0;entryY=1;entryDx=0;entryDy=0;exitX=0.5;exitY=0;exitDx=0;exitDy=0;" edge="1" parent="1" source="o5k_G5LygYLpbHygVO8U-30" target="o5k_G5LygYLpbHygVO8U-29">
          <mxGeometry relative="1" as="geometry">
            <mxPoint x="940" y="340" as="sourcePoint" />
            <mxPoint x="1100" y="340" as="targetPoint" />
            <Array as="points" />
          </mxGeometry>
        </mxCell>
        <mxCell id="o5k_G5LygYLpbHygVO8U-34" value="" style="endArrow=none;html=1;rounded=0;exitX=1;exitY=0;exitDx=0;exitDy=0;entryX=0.25;entryY=1;entryDx=0;entryDy=0;" edge="1" parent="1" source="o5k_G5LygYLpbHygVO8U-31" target="o5k_G5LygYLpbHygVO8U-29">
          <mxGeometry relative="1" as="geometry">
            <mxPoint x="1120" y="460" as="sourcePoint" />
            <mxPoint x="1280" y="460" as="targetPoint" />
          </mxGeometry>
        </mxCell>
        <mxCell id="o5k_G5LygYLpbHygVO8U-35" value="" style="endArrow=none;html=1;rounded=0;exitX=1;exitY=0.5;exitDx=0;exitDy=0;entryX=0;entryY=0.5;entryDx=0;entryDy=0;" edge="1" parent="1" source="o5k_G5LygYLpbHygVO8U-29" target="o5k_G5LygYLpbHygVO8U-32">
          <mxGeometry relative="1" as="geometry">
            <mxPoint x="1150" y="390" as="sourcePoint" />
            <mxPoint x="1280" y="460" as="targetPoint" />
          </mxGeometry>
        </mxCell>
        <mxCell id="o5k_G5LygYLpbHygVO8U-36" value="First Name" style="ellipse;whiteSpace=wrap;html=1;align=center;" vertex="1" parent="1">
          <mxGeometry x="1210" y="370" width="100" height="40" as="geometry" />
        </mxCell>
        <mxCell id="o5k_G5LygYLpbHygVO8U-37" value="Last Name" style="ellipse;whiteSpace=wrap;html=1;align=center;" vertex="1" parent="1">
          <mxGeometry x="1310" y="370" width="100" height="40" as="geometry" />
        </mxCell>
        <mxCell id="o5k_G5LygYLpbHygVO8U-38" value="" style="endArrow=none;html=1;rounded=0;exitX=1;exitY=1;exitDx=0;exitDy=0;entryX=0.5;entryY=0;entryDx=0;entryDy=0;" edge="1" parent="1" source="o5k_G5LygYLpbHygVO8U-29" target="o5k_G5LygYLpbHygVO8U-36">
          <mxGeometry relative="1" as="geometry">
            <mxPoint x="1120" y="460" as="sourcePoint" />
            <mxPoint x="1280" y="460" as="targetPoint" />
          </mxGeometry>
        </mxCell>
        <mxCell id="o5k_G5LygYLpbHygVO8U-39" value="" style="endArrow=none;html=1;rounded=0;entryX=0.5;entryY=0;entryDx=0;entryDy=0;exitX=1;exitY=0.5;exitDx=0;exitDy=0;" edge="1" parent="1" source="o5k_G5LygYLpbHygVO8U-29" target="o5k_G5LygYLpbHygVO8U-37">
          <mxGeometry relative="1" as="geometry">
            <mxPoint x="1120" y="460" as="sourcePoint" />
            <mxPoint x="1280" y="460" as="targetPoint" />
          </mxGeometry>
        </mxCell>
        <mxCell id="o5k_G5LygYLpbHygVO8U-41" value="" style="endArrow=none;html=1;rounded=0;exitX=1;exitY=0.5;exitDx=0;exitDy=0;entryX=0;entryY=0.5;entryDx=0;entryDy=0;" edge="1" parent="1" source="o5k_G5LygYLpbHygVO8U-112" target="o5k_G5LygYLpbHygVO8U-29">
          <mxGeometry relative="1" as="geometry">
            <mxPoint x="1040" y="310" as="sourcePoint" />
            <mxPoint x="1510" y="580" as="targetPoint" />
          </mxGeometry>
        </mxCell>
        <mxCell id="o5k_G5LygYLpbHygVO8U-44" value="" style="endArrow=none;html=1;rounded=0;exitX=1;exitY=0.5;exitDx=0;exitDy=0;" edge="1" parent="1" source="o5k_G5LygYLpbHygVO8U-1" target="o5k_G5LygYLpbHygVO8U-4">
          <mxGeometry relative="1" as="geometry">
            <mxPoint x="420" y="80" as="sourcePoint" />
            <mxPoint x="530" y="80" as="targetPoint" />
            <Array as="points" />
          </mxGeometry>
        </mxCell>
        <mxCell id="o5k_G5LygYLpbHygVO8U-4" value="ID" style="ellipse;whiteSpace=wrap;html=1;align=center;fontStyle=4;" vertex="1" parent="1">
          <mxGeometry x="480" y="60" width="100" height="40" as="geometry" />
        </mxCell>
        <mxCell id="o5k_G5LygYLpbHygVO8U-45" value="Job Description" style="ellipse;whiteSpace=wrap;html=1;align=center;" vertex="1" parent="1">
          <mxGeometry x="200" y="410" width="100" height="40" as="geometry" />
        </mxCell>
        <mxCell id="o5k_G5LygYLpbHygVO8U-47" value="Job" style="ellipse;whiteSpace=wrap;html=1;align=center;" vertex="1" parent="1">
          <mxGeometry x="200" y="320" width="100" height="40" as="geometry" />
        </mxCell>
        <mxCell id="o5k_G5LygYLpbHygVO8U-57" value="Movie" style="rounded=1;arcSize=10;whiteSpace=wrap;html=1;align=center;" vertex="1" parent="1">
          <mxGeometry x="420" y="560" width="100" height="40" as="geometry" />
        </mxCell>
        <mxCell id="o5k_G5LygYLpbHygVO8U-58" value="Name" style="ellipse;whiteSpace=wrap;html=1;align=center;" vertex="1" parent="1">
          <mxGeometry x="240" y="560" width="100" height="40" as="geometry" />
        </mxCell>
        <mxCell id="o5k_G5LygYLpbHygVO8U-60" value="" style="endArrow=none;html=1;rounded=0;exitX=1;exitY=0.5;exitDx=0;exitDy=0;entryX=0;entryY=0.5;entryDx=0;entryDy=0;" edge="1" parent="1" source="o5k_G5LygYLpbHygVO8U-58" target="o5k_G5LygYLpbHygVO8U-57">
          <mxGeometry relative="1" as="geometry">
            <mxPoint x="85" y="610" as="sourcePoint" />
            <mxPoint x="245" y="610" as="targetPoint" />
          </mxGeometry>
        </mxCell>
        <mxCell id="o5k_G5LygYLpbHygVO8U-63" value="Movie ID" style="ellipse;whiteSpace=wrap;html=1;align=center;fontStyle=4;" vertex="1" parent="1">
          <mxGeometry x="590" y="560" width="100" height="40" as="geometry" />
        </mxCell>
        <mxCell id="o5k_G5LygYLpbHygVO8U-67" value="Length" style="ellipse;whiteSpace=wrap;html=1;align=center;" vertex="1" parent="1">
          <mxGeometry x="380" y="720" width="100" height="40" as="geometry" />
        </mxCell>
        <mxCell id="o5k_G5LygYLpbHygVO8U-68" value="Language" style="ellipse;whiteSpace=wrap;html=1;align=center;" vertex="1" parent="1">
          <mxGeometry x="490" y="720" width="100" height="40" as="geometry" />
        </mxCell>
        <mxCell id="o5k_G5LygYLpbHygVO8U-69" value="Genre" style="ellipse;whiteSpace=wrap;html=1;align=center;" vertex="1" parent="1">
          <mxGeometry x="270" y="720" width="100" height="40" as="geometry" />
        </mxCell>
        <mxCell id="o5k_G5LygYLpbHygVO8U-70" value="Average Rating" style="ellipse;whiteSpace=wrap;html=1;align=center;" vertex="1" parent="1">
          <mxGeometry x="150" y="720" width="100" height="40" as="geometry" />
        </mxCell>
        <mxCell id="o5k_G5LygYLpbHygVO8U-71" value="Movie Details" style="ellipse;shape=doubleEllipse;margin=3;whiteSpace=wrap;html=1;align=center;" vertex="1" parent="1">
          <mxGeometry x="420" y="640" width="100" height="40" as="geometry" />
        </mxCell>
        <mxCell id="o5k_G5LygYLpbHygVO8U-72" value="" style="endArrow=none;html=1;rounded=0;exitX=0.5;exitY=0;exitDx=0;exitDy=0;entryX=0;entryY=0.5;entryDx=0;entryDy=0;" edge="1" parent="1" source="o5k_G5LygYLpbHygVO8U-70" target="o5k_G5LygYLpbHygVO8U-71">
          <mxGeometry relative="1" as="geometry">
            <mxPoint x="200" y="720" as="sourcePoint" />
            <mxPoint x="465" y="515" as="targetPoint" />
          </mxGeometry>
        </mxCell>
        <mxCell id="o5k_G5LygYLpbHygVO8U-74" value="" style="endArrow=none;html=1;rounded=0;entryX=0.5;entryY=0;entryDx=0;entryDy=0;exitX=0;exitY=1;exitDx=0;exitDy=0;" edge="1" parent="1" source="o5k_G5LygYLpbHygVO8U-71" target="o5k_G5LygYLpbHygVO8U-69">
          <mxGeometry relative="1" as="geometry">
            <mxPoint x="305" y="515" as="sourcePoint" />
            <mxPoint x="465" y="515" as="targetPoint" />
          </mxGeometry>
        </mxCell>
        <mxCell id="o5k_G5LygYLpbHygVO8U-75" value="" style="endArrow=none;html=1;rounded=0;exitX=0.5;exitY=0;exitDx=0;exitDy=0;entryX=0.5;entryY=1;entryDx=0;entryDy=0;" edge="1" parent="1" source="o5k_G5LygYLpbHygVO8U-67" target="o5k_G5LygYLpbHygVO8U-71">
          <mxGeometry relative="1" as="geometry">
            <mxPoint x="305" y="515" as="sourcePoint" />
            <mxPoint x="595" y="665" as="targetPoint" />
          </mxGeometry>
        </mxCell>
        <mxCell id="o5k_G5LygYLpbHygVO8U-76" value="" style="endArrow=none;html=1;rounded=0;exitX=0.5;exitY=0;exitDx=0;exitDy=0;entryX=1;entryY=1;entryDx=0;entryDy=0;" edge="1" parent="1" source="o5k_G5LygYLpbHygVO8U-68" target="o5k_G5LygYLpbHygVO8U-71">
          <mxGeometry relative="1" as="geometry">
            <mxPoint x="345" y="525" as="sourcePoint" />
            <mxPoint x="505" y="525" as="targetPoint" />
          </mxGeometry>
        </mxCell>
        <mxCell id="o5k_G5LygYLpbHygVO8U-77" value="Release Date" style="ellipse;whiteSpace=wrap;html=1;align=center;" vertex="1" parent="1">
          <mxGeometry x="600" y="720" width="100" height="40" as="geometry" />
        </mxCell>
        <mxCell id="o5k_G5LygYLpbHygVO8U-78" value="" style="endArrow=none;html=1;rounded=0;exitX=0.5;exitY=0;exitDx=0;exitDy=0;entryX=1;entryY=0.5;entryDx=0;entryDy=0;" edge="1" parent="1" source="o5k_G5LygYLpbHygVO8U-77" target="o5k_G5LygYLpbHygVO8U-71">
          <mxGeometry relative="1" as="geometry">
            <mxPoint x="345" y="525" as="sourcePoint" />
            <mxPoint x="505" y="525" as="targetPoint" />
          </mxGeometry>
        </mxCell>
        <mxCell id="o5k_G5LygYLpbHygVO8U-80" value="" style="endArrow=none;html=1;rounded=0;exitX=0.5;exitY=1;exitDx=0;exitDy=0;entryX=0.5;entryY=0;entryDx=0;entryDy=0;" edge="1" parent="1" source="o5k_G5LygYLpbHygVO8U-57" target="o5k_G5LygYLpbHygVO8U-71">
          <mxGeometry relative="1" as="geometry">
            <mxPoint x="215" y="640" as="sourcePoint" />
            <mxPoint x="375" y="640" as="targetPoint" />
          </mxGeometry>
        </mxCell>
        <mxCell id="o5k_G5LygYLpbHygVO8U-81" value="" style="endArrow=none;html=1;rounded=0;exitX=1;exitY=0.5;exitDx=0;exitDy=0;entryX=0;entryY=0.5;entryDx=0;entryDy=0;" edge="1" parent="1" source="o5k_G5LygYLpbHygVO8U-57" target="o5k_G5LygYLpbHygVO8U-63">
          <mxGeometry relative="1" as="geometry">
            <mxPoint x="245" y="640" as="sourcePoint" />
            <mxPoint x="405" y="640" as="targetPoint" />
          </mxGeometry>
        </mxCell>
        <mxCell id="o5k_G5LygYLpbHygVO8U-84" value="Rating" style="rounded=1;arcSize=10;whiteSpace=wrap;html=1;align=center;" vertex="1" parent="1">
          <mxGeometry x="-360" y="120" width="100" height="40" as="geometry" />
        </mxCell>
        <mxCell id="o5k_G5LygYLpbHygVO8U-85" value="ID" style="ellipse;whiteSpace=wrap;html=1;align=center;fontStyle=4;" vertex="1" parent="1">
          <mxGeometry x="-195" y="180" width="100" height="40" as="geometry" />
        </mxCell>
        <mxCell id="o5k_G5LygYLpbHygVO8U-86" value="" style="endArrow=none;html=1;rounded=0;exitX=1;exitY=1;exitDx=0;exitDy=0;" edge="1" parent="1" source="o5k_G5LygYLpbHygVO8U-84" target="o5k_G5LygYLpbHygVO8U-85">
          <mxGeometry relative="1" as="geometry">
            <mxPoint x="-195" y="-80" as="sourcePoint" />
            <mxPoint x="-35" y="-80" as="targetPoint" />
          </mxGeometry>
        </mxCell>
        <mxCell id="o5k_G5LygYLpbHygVO8U-87" value="Critic ID" style="ellipse;whiteSpace=wrap;html=1;align=center;" vertex="1" parent="1">
          <mxGeometry x="-315" y="180" width="100" height="40" as="geometry" />
        </mxCell>
        <mxCell id="o5k_G5LygYLpbHygVO8U-88" value="Movie ID" style="ellipse;whiteSpace=wrap;html=1;align=center;" vertex="1" parent="1">
          <mxGeometry x="-425" y="180" width="100" height="40" as="geometry" />
        </mxCell>
        <mxCell id="o5k_G5LygYLpbHygVO8U-89" value="Score" style="ellipse;whiteSpace=wrap;html=1;align=center;" vertex="1" parent="1">
          <mxGeometry x="-545" y="180" width="100" height="40" as="geometry" />
        </mxCell>
        <mxCell id="o5k_G5LygYLpbHygVO8U-90" value="" style="endArrow=none;html=1;rounded=0;entryX=0;entryY=1;entryDx=0;entryDy=0;exitX=0.5;exitY=0;exitDx=0;exitDy=0;" edge="1" parent="1" source="o5k_G5LygYLpbHygVO8U-89" target="o5k_G5LygYLpbHygVO8U-84">
          <mxGeometry relative="1" as="geometry">
            <mxPoint x="-475" y="100" as="sourcePoint" />
            <mxPoint x="-395" y="140" as="targetPoint" />
          </mxGeometry>
        </mxCell>
        <mxCell id="o5k_G5LygYLpbHygVO8U-91" value="" style="endArrow=none;html=1;rounded=0;exitX=0.5;exitY=0;exitDx=0;exitDy=0;entryX=0.25;entryY=1;entryDx=0;entryDy=0;" edge="1" parent="1" source="o5k_G5LygYLpbHygVO8U-88" target="o5k_G5LygYLpbHygVO8U-84">
          <mxGeometry relative="1" as="geometry">
            <mxPoint x="-195" y="-80" as="sourcePoint" />
            <mxPoint x="-35" y="-80" as="targetPoint" />
          </mxGeometry>
        </mxCell>
        <mxCell id="o5k_G5LygYLpbHygVO8U-92" value="" style="endArrow=none;html=1;rounded=0;exitX=0.75;exitY=1;exitDx=0;exitDy=0;entryX=0.5;entryY=0;entryDx=0;entryDy=0;" edge="1" parent="1" source="o5k_G5LygYLpbHygVO8U-84" target="o5k_G5LygYLpbHygVO8U-87">
          <mxGeometry relative="1" as="geometry">
            <mxPoint x="-195" y="-80" as="sourcePoint" />
            <mxPoint x="-35" y="-80" as="targetPoint" />
          </mxGeometry>
        </mxCell>
        <mxCell id="o5k_G5LygYLpbHygVO8U-94" value="Critic" style="rounded=1;arcSize=10;whiteSpace=wrap;html=1;align=center;" vertex="1" parent="1">
          <mxGeometry x="-370" y="470" width="100" height="40" as="geometry" />
        </mxCell>
        <mxCell id="o5k_G5LygYLpbHygVO8U-95" value="Level of criticality" style="ellipse;whiteSpace=wrap;html=1;align=center;" vertex="1" parent="1">
          <mxGeometry x="-560" y="550" width="100" height="40" as="geometry" />
        </mxCell>
        <mxCell id="o5k_G5LygYLpbHygVO8U-96" value="Last Name" style="ellipse;whiteSpace=wrap;html=1;align=center;" vertex="1" parent="1">
          <mxGeometry x="-450" y="550" width="100" height="40" as="geometry" />
        </mxCell>
        <mxCell id="o5k_G5LygYLpbHygVO8U-97" value="" style="endArrow=none;html=1;rounded=0;entryX=0;entryY=1;entryDx=0;entryDy=0;exitX=0.5;exitY=0;exitDx=0;exitDy=0;" edge="1" parent="1" source="o5k_G5LygYLpbHygVO8U-95" target="o5k_G5LygYLpbHygVO8U-94">
          <mxGeometry relative="1" as="geometry">
            <mxPoint x="-520" y="520" as="sourcePoint" />
            <mxPoint x="-360" y="520" as="targetPoint" />
            <Array as="points" />
          </mxGeometry>
        </mxCell>
        <mxCell id="o5k_G5LygYLpbHygVO8U-98" value="" style="endArrow=none;html=1;rounded=0;exitX=1;exitY=0;exitDx=0;exitDy=0;entryX=0.25;entryY=1;entryDx=0;entryDy=0;" edge="1" parent="1" source="o5k_G5LygYLpbHygVO8U-96" target="o5k_G5LygYLpbHygVO8U-94">
          <mxGeometry relative="1" as="geometry">
            <mxPoint x="-340" y="640" as="sourcePoint" />
            <mxPoint x="-180" y="640" as="targetPoint" />
          </mxGeometry>
        </mxCell>
        <mxCell id="o5k_G5LygYLpbHygVO8U-100" value="First Name" style="ellipse;whiteSpace=wrap;html=1;align=center;" vertex="1" parent="1">
          <mxGeometry x="-330" y="550" width="100" height="40" as="geometry" />
        </mxCell>
        <mxCell id="o5k_G5LygYLpbHygVO8U-101" value="" style="endArrow=none;html=1;rounded=0;exitX=0.75;exitY=1;exitDx=0;exitDy=0;" edge="1" parent="1" source="o5k_G5LygYLpbHygVO8U-94" target="o5k_G5LygYLpbHygVO8U-100">
          <mxGeometry relative="1" as="geometry">
            <mxPoint x="-340" y="640" as="sourcePoint" />
            <mxPoint x="-180" y="640" as="targetPoint" />
          </mxGeometry>
        </mxCell>
        <mxCell id="o5k_G5LygYLpbHygVO8U-105" value="" style="endArrow=none;html=1;rounded=0;exitX=1;exitY=1;exitDx=0;exitDy=0;" edge="1" parent="1" source="o5k_G5LygYLpbHygVO8U-94" target="o5k_G5LygYLpbHygVO8U-106">
          <mxGeometry relative="1" as="geometry">
            <mxPoint x="-270" y="490" as="sourcePoint" />
            <mxPoint x="-160" y="490" as="targetPoint" />
            <Array as="points" />
          </mxGeometry>
        </mxCell>
        <mxCell id="o5k_G5LygYLpbHygVO8U-106" value="ID" style="ellipse;whiteSpace=wrap;html=1;align=center;fontStyle=4;" vertex="1" parent="1">
          <mxGeometry x="-210" y="550" width="100" height="40" as="geometry" />
        </mxCell>
        <mxCell id="o5k_G5LygYLpbHygVO8U-112" value="Date" style="ellipse;whiteSpace=wrap;html=1;align=center;" vertex="1" parent="1">
          <mxGeometry x="940" y="290" width="100" height="40" as="geometry" />
        </mxCell>
        <mxCell id="o5k_G5LygYLpbHygVO8U-119" value="Director ID" style="ellipse;whiteSpace=wrap;html=1;align=center;" vertex="1" parent="1">
          <mxGeometry x="710" y="720" width="100" height="40" as="geometry" />
        </mxCell>
        <mxCell id="o5k_G5LygYLpbHygVO8U-120" value="" style="endArrow=none;html=1;rounded=0;exitX=0.5;exitY=0;exitDx=0;exitDy=0;entryX=1;entryY=0.5;entryDx=0;entryDy=0;" edge="1" parent="1" source="o5k_G5LygYLpbHygVO8U-119" target="o5k_G5LygYLpbHygVO8U-71">
          <mxGeometry relative="1" as="geometry">
            <mxPoint x="520" y="430" as="sourcePoint" />
            <mxPoint x="680" y="430" as="targetPoint" />
          </mxGeometry>
        </mxCell>
        <mxCell id="o5k_G5LygYLpbHygVO8U-121" value="Date" style="ellipse;whiteSpace=wrap;html=1;align=center;" vertex="1" parent="1">
          <mxGeometry x="170" y="60" width="100" height="40" as="geometry" />
        </mxCell>
        <mxCell id="o5k_G5LygYLpbHygVO8U-126" value="" style="edgeStyle=entityRelationEdgeStyle;fontSize=12;html=1;endArrow=ERoneToMany;rounded=0;entryX=1;entryY=0;entryDx=0;entryDy=0;exitX=0.75;exitY=1;exitDx=0;exitDy=0;startArrow=none;" edge="1" parent="1" source="o5k_G5LygYLpbHygVO8U-138" target="o5k_G5LygYLpbHygVO8U-57">
          <mxGeometry width="100" height="100" relative="1" as="geometry">
            <mxPoint x="830" y="430" as="sourcePoint" />
            <mxPoint x="870" y="560" as="targetPoint" />
          </mxGeometry>
        </mxCell>
        <mxCell id="o5k_G5LygYLpbHygVO8U-128" value="Entertainment service" style="rounded=1;arcSize=10;whiteSpace=wrap;html=1;align=center;" vertex="1" parent="1">
          <mxGeometry x="-160" y="650" width="100" height="40" as="geometry" />
        </mxCell>
        <mxCell id="o5k_G5LygYLpbHygVO8U-129" value="ID" style="ellipse;whiteSpace=wrap;html=1;align=center;fontStyle=4;" vertex="1" parent="1">
          <mxGeometry x="-30" y="730" width="100" height="40" as="geometry" />
        </mxCell>
        <mxCell id="o5k_G5LygYLpbHygVO8U-130" value="Type" style="ellipse;whiteSpace=wrap;html=1;align=center;" vertex="1" parent="1">
          <mxGeometry x="-150" y="730" width="100" height="40" as="geometry" />
        </mxCell>
        <mxCell id="o5k_G5LygYLpbHygVO8U-131" value="Name" style="ellipse;whiteSpace=wrap;html=1;align=center;" vertex="1" parent="1">
          <mxGeometry x="-270" y="730" width="100" height="40" as="geometry" />
        </mxCell>
        <mxCell id="o5k_G5LygYLpbHygVO8U-132" value="Attribute" style="ellipse;whiteSpace=wrap;html=1;align=center;" vertex="1" parent="1">
          <mxGeometry y="650" width="100" height="40" as="geometry" />
        </mxCell>
        <mxCell id="o5k_G5LygYLpbHygVO8U-134" value="" style="endArrow=none;html=1;rounded=0;entryX=0;entryY=0.5;entryDx=0;entryDy=0;exitX=1;exitY=0.5;exitDx=0;exitDy=0;" edge="1" parent="1" source="o5k_G5LygYLpbHygVO8U-128" target="o5k_G5LygYLpbHygVO8U-132">
          <mxGeometry relative="1" as="geometry">
            <mxPoint x="-20" y="890" as="sourcePoint" />
            <mxPoint x="140" y="890" as="targetPoint" />
          </mxGeometry>
        </mxCell>
        <mxCell id="o5k_G5LygYLpbHygVO8U-135" value="" style="endArrow=none;html=1;rounded=0;exitX=1;exitY=1;exitDx=0;exitDy=0;entryX=0.5;entryY=0;entryDx=0;entryDy=0;" edge="1" parent="1" source="o5k_G5LygYLpbHygVO8U-128" target="o5k_G5LygYLpbHygVO8U-129">
          <mxGeometry relative="1" as="geometry">
            <mxPoint x="-20" y="890" as="sourcePoint" />
            <mxPoint x="140" y="890" as="targetPoint" />
          </mxGeometry>
        </mxCell>
        <mxCell id="o5k_G5LygYLpbHygVO8U-136" value="" style="endArrow=none;html=1;rounded=0;exitX=0.5;exitY=1;exitDx=0;exitDy=0;" edge="1" parent="1" source="o5k_G5LygYLpbHygVO8U-128" target="o5k_G5LygYLpbHygVO8U-130">
          <mxGeometry relative="1" as="geometry">
            <mxPoint x="-20" y="890" as="sourcePoint" />
            <mxPoint x="140" y="890" as="targetPoint" />
          </mxGeometry>
        </mxCell>
        <mxCell id="o5k_G5LygYLpbHygVO8U-137" value="" style="endArrow=none;html=1;rounded=0;exitX=0;exitY=1;exitDx=0;exitDy=0;entryX=0.5;entryY=0;entryDx=0;entryDy=0;" edge="1" parent="1" source="o5k_G5LygYLpbHygVO8U-128" target="o5k_G5LygYLpbHygVO8U-131">
          <mxGeometry relative="1" as="geometry">
            <mxPoint x="-20" y="890" as="sourcePoint" />
            <mxPoint x="140" y="890" as="targetPoint" />
          </mxGeometry>
        </mxCell>
        <mxCell id="o5k_G5LygYLpbHygVO8U-139" value="" style="edgeStyle=entityRelationEdgeStyle;fontSize=12;html=1;endArrow=none;rounded=0;entryX=1;entryY=0;entryDx=0;entryDy=0;exitX=0.75;exitY=1;exitDx=0;exitDy=0;" edge="1" parent="1" source="o5k_G5LygYLpbHygVO8U-29" target="o5k_G5LygYLpbHygVO8U-138">
          <mxGeometry width="100" height="100" relative="1" as="geometry">
            <mxPoint x="855" y="120" as="sourcePoint" />
            <mxPoint x="520" y="560" as="targetPoint" />
          </mxGeometry>
        </mxCell>
        <mxCell id="o5k_G5LygYLpbHygVO8U-138" value="Relationship" style="shape=rhombus;perimeter=rhombusPerimeter;whiteSpace=wrap;html=1;align=center;" vertex="1" parent="1">
          <mxGeometry x="630" y="310" width="120" height="60" as="geometry" />
        </mxCell>
        <mxCell id="o5k_G5LygYLpbHygVO8U-140" value="" style="edgeStyle=entityRelationEdgeStyle;fontSize=12;html=1;endArrow=ERmany;startArrow=none;rounded=0;exitX=0.5;exitY=0;exitDx=0;exitDy=0;entryX=0.5;entryY=1;entryDx=0;entryDy=0;" edge="1" parent="1" source="o5k_G5LygYLpbHygVO8U-115" target="o5k_G5LygYLpbHygVO8U-1">
          <mxGeometry width="100" height="100" relative="1" as="geometry">
            <mxPoint x="240" y="520" as="sourcePoint" />
            <mxPoint x="340" y="420" as="targetPoint" />
          </mxGeometry>
        </mxCell>
        <mxCell id="o5k_G5LygYLpbHygVO8U-142" value="" style="edgeStyle=entityRelationEdgeStyle;fontSize=12;html=1;endArrow=none;startArrow=ERmany;rounded=0;exitX=0.5;exitY=0;exitDx=0;exitDy=0;entryX=0.5;entryY=1;entryDx=0;entryDy=0;" edge="1" parent="1" source="o5k_G5LygYLpbHygVO8U-57" target="o5k_G5LygYLpbHygVO8U-115">
          <mxGeometry width="100" height="100" relative="1" as="geometry">
            <mxPoint x="470" y="560" as="sourcePoint" />
            <mxPoint x="250" y="120" as="targetPoint" />
          </mxGeometry>
        </mxCell>
        <mxCell id="o5k_G5LygYLpbHygVO8U-115" value="Cast" style="shape=rhombus;perimeter=rhombusPerimeter;whiteSpace=wrap;html=1;align=center;" vertex="1" parent="1">
          <mxGeometry x="320" y="350" width="120" height="60" as="geometry" />
        </mxCell>
        <mxCell id="o5k_G5LygYLpbHygVO8U-145" value="" style="endArrow=none;html=1;rounded=0;entryX=0;entryY=1;entryDx=0;entryDy=0;exitX=0.73;exitY=0.075;exitDx=0;exitDy=0;exitPerimeter=0;" edge="1" parent="1" source="o5k_G5LygYLpbHygVO8U-45" target="o5k_G5LygYLpbHygVO8U-115">
          <mxGeometry relative="1" as="geometry">
            <mxPoint x="210" y="470" as="sourcePoint" />
            <mxPoint x="370" y="470" as="targetPoint" />
          </mxGeometry>
        </mxCell>
        <mxCell id="o5k_G5LygYLpbHygVO8U-146" value="" style="endArrow=none;html=1;rounded=0;entryX=1;entryY=0.5;entryDx=0;entryDy=0;exitX=0;exitY=0;exitDx=0;exitDy=0;" edge="1" parent="1" source="o5k_G5LygYLpbHygVO8U-115" target="o5k_G5LygYLpbHygVO8U-47">
          <mxGeometry relative="1" as="geometry">
            <mxPoint x="210" y="470" as="sourcePoint" />
            <mxPoint x="370" y="470" as="targetPoint" />
          </mxGeometry>
        </mxCell>
        <mxCell id="o5k_G5LygYLpbHygVO8U-147" value="" style="edgeStyle=entityRelationEdgeStyle;fontSize=12;html=1;endArrow=ERoneToMany;rounded=0;exitX=0.5;exitY=0;exitDx=0;exitDy=0;entryX=0.61;entryY=1.075;entryDx=0;entryDy=0;entryPerimeter=0;startArrow=none;" edge="1" parent="1" source="o5k_G5LygYLpbHygVO8U-148" target="o5k_G5LygYLpbHygVO8U-84">
          <mxGeometry width="100" height="100" relative="1" as="geometry">
            <mxPoint x="-210" y="430" as="sourcePoint" />
            <mxPoint x="-110" y="330" as="targetPoint" />
          </mxGeometry>
        </mxCell>
        <mxCell id="o5k_G5LygYLpbHygVO8U-151" value="" style="edgeStyle=entityRelationEdgeStyle;fontSize=12;html=1;endArrow=none;rounded=0;exitX=0.5;exitY=0;exitDx=0;exitDy=0;entryX=0.61;entryY=1.075;entryDx=0;entryDy=0;entryPerimeter=0;" edge="1" parent="1" source="o5k_G5LygYLpbHygVO8U-94" target="o5k_G5LygYLpbHygVO8U-148">
          <mxGeometry width="100" height="100" relative="1" as="geometry">
            <mxPoint x="-305" y="480" as="sourcePoint" />
            <mxPoint x="-299" y="163" as="targetPoint" />
          </mxGeometry>
        </mxCell>
        <mxCell id="o5k_G5LygYLpbHygVO8U-148" value="Relationship" style="shape=rhombus;perimeter=rhombusPerimeter;whiteSpace=wrap;html=1;align=center;" vertex="1" parent="1">
          <mxGeometry x="-580" y="330" width="120" height="60" as="geometry" />
        </mxCell>
        <mxCell id="o5k_G5LygYLpbHygVO8U-152" value="" style="edgeStyle=entityRelationEdgeStyle;fontSize=12;html=1;endArrow=ERoneToMany;rounded=0;exitX=0;exitY=0;exitDx=0;exitDy=0;entryX=1;entryY=0.5;entryDx=0;entryDy=0;startArrow=none;" edge="1" parent="1" source="o5k_G5LygYLpbHygVO8U-155" target="o5k_G5LygYLpbHygVO8U-84">
          <mxGeometry width="100" height="100" relative="1" as="geometry">
            <mxPoint x="-160" y="430" as="sourcePoint" />
            <mxPoint x="-60" y="330" as="targetPoint" />
          </mxGeometry>
        </mxCell>
        <mxCell id="o5k_G5LygYLpbHygVO8U-156" value="" style="edgeStyle=entityRelationEdgeStyle;fontSize=12;html=1;endArrow=none;rounded=0;exitX=0;exitY=0;exitDx=0;exitDy=0;entryX=1;entryY=0.5;entryDx=0;entryDy=0;" edge="1" parent="1" source="o5k_G5LygYLpbHygVO8U-57" target="o5k_G5LygYLpbHygVO8U-155">
          <mxGeometry width="100" height="100" relative="1" as="geometry">
            <mxPoint x="420" y="560" as="sourcePoint" />
            <mxPoint x="-260" y="140" as="targetPoint" />
          </mxGeometry>
        </mxCell>
        <mxCell id="o5k_G5LygYLpbHygVO8U-155" value="Relationship" style="shape=rhombus;perimeter=rhombusPerimeter;whiteSpace=wrap;html=1;align=center;" vertex="1" parent="1">
          <mxGeometry x="-95" y="340" width="120" height="60" as="geometry" />
        </mxCell>
        <mxCell id="o5k_G5LygYLpbHygVO8U-157" value="" style="edgeStyle=entityRelationEdgeStyle;fontSize=12;html=1;endArrow=ERmany;startArrow=ERmany;rounded=0;entryX=0;entryY=1;entryDx=0;entryDy=0;exitX=0.44;exitY=-0.075;exitDx=0;exitDy=0;exitPerimeter=0;" edge="1" parent="1" source="o5k_G5LygYLpbHygVO8U-128" target="o5k_G5LygYLpbHygVO8U-57">
          <mxGeometry width="100" height="100" relative="1" as="geometry">
            <mxPoint x="-350" y="770" as="sourcePoint" />
            <mxPoint x="-250" y="670" as="targetPoint" />
          </mxGeometry>
        </mxCell>
      </root>
    </mxGraphModel>
  </diagram>
</mxfile>
